<svg width="16" height="16" viewBox="0 0 16 16" fill="none" xmlns="http://www.w3.org/2000/svg">
    <g clip-path="url(#6ngp56ixna)">
        <path fill-rule="evenodd" clip-rule="evenodd" d="M14.268 8.533c.02-.171.02-.343.02-.533 0-3.62-2.862-6.571-6.382-6.571-3.52 0-6.381 2.952-6.381 6.571 0 3.619 2.86 6.571 6.38 6.571 3.333-.019 6.08-2.666 6.363-6.038zm-1.11-2.247c-.113-.057-.226-.115-.32-.153-.697-.247-1.487-.133-2.033.134a9.04 9.04 0 0 0-.565-.686c.885-.686 1.393-1.01 1.845-1.276.47.571.847 1.238 1.073 1.98zm.226 2.228a5.709 5.709 0 0 1-.603 2.115c-.207-1.258-.696-2.439-1.468-3.6.32-.134.79-.19 1.223-.039.546.19.829.705.848 1.524zm-4.386-4.19c.32-.381.47-.857.451-1.334a1.94 1.94 0 0 0-.094-.476c.772.229 1.487.61 2.09 1.143-.452.267-.98.629-1.807 1.276-.226-.228-.433-.419-.64-.61zm-.904-2c.282.171.452.419.47.724a.99.99 0 0 1-.263.723 6.62 6.62 0 0 0-2.353-1.085 5.117 5.117 0 0 1 1.958-.362h.188zM4.706 3.39c1.092.096 1.995.381 2.861.953-.828.457-1.713.686-2.56.876-.79.19-1.543.381-2.221.743a5.46 5.46 0 0 1 1.92-2.572zM2.447 7.314c.659-.724 1.638-.971 2.748-1.238.98-.247 2.09-.514 3.125-1.18.207.17.414.361.621.57C6.325 7.6 4.424 9.925 3.407 11.22a5.787 5.787 0 0 1-.998-3.257c-.018-.19 0-.42.038-.648zm1.525 4.648c.979-1.257 2.899-3.638 5.572-5.829.207.248.414.477.583.724-.979 1.276-1.186 2.076-1.638 4.172-.207 1.01-.64 1.942-1.185 2.61a5.462 5.462 0 0 1-3.332-1.677zm4.404 1.676a7.82 7.82 0 0 0 .96-2.419c.415-1.905.584-2.59 1.318-3.6.847 1.314 1.28 2.686 1.355 4.133-.903 1.067-2.183 1.772-3.633 1.886z" fill="#fff"/>
    </g>
    <defs>
        <clipPath id="6ngp56ixna">
            <path fill="#fff" d="M0 0h16v16H0z"/>
        </clipPath>
    </defs>
</svg>
