<svg width="16" height="16" viewBox="0 0 16 16" fill="none" xmlns="http://www.w3.org/2000/svg">
    <g clip-path="url(#96sy2azeba)">
        <path fill-rule="evenodd" clip-rule="evenodd" d="M2.767 2.8c2.824-2.876 7.435-2.876 10.278 0 2.823 2.857 2.823 7.524 0 10.4-2.843 2.876-7.436 2.857-10.278 0-2.823-2.857-2.823-7.543 0-10.4zm8-.438a6.233 6.233 0 0 0-7.285 1.162c-1.976 2-2.353 4.99-1.148 7.371l1.224-.514L5.553 12.4l-.508 1.238a6.237 6.237 0 0 0 7.284-1.162c1.958-2 2.335-5.01 1.149-7.39l-1.224.514-1.995-2.019.508-1.22zm.508 5.58.941 2.42-1.976 2-2.372-.933.621-2.839 2.786-.647zM5.44 3.658l2.353 1.01-.508 2.704-2.692.496-.979-2.362L5.44 3.657z" fill="#fff"/>
    </g>
    <defs>
        <clipPath id="96sy2azeba">
            <path fill="#fff" d="M0 0h16v16H0z"/>
        </clipPath>
    </defs>
</svg>
