<svg width="16" height="16" viewBox="0 0 16 16" fill="none" xmlns="http://www.w3.org/2000/svg">
    <g clip-path="url(#eq3ynm2lfa)">
        <path fill-rule="evenodd" clip-rule="evenodd" d="M6.795 2.533c3.2 0 4.537 2.134 4.744 3.81h.47c.245 0 .433.19.433.438a.429.429 0 0 1-.433.438h-.433v1.848c0 .228 0 .457.02.666h1.825c.659 0 .716.534.734.705v2.267c0 .514-.244.743-.753.743-.527 0-2.108-.229-2.56-2.8H9.45c-.188 2.228-1.825 2.419-2.353 2.419-.828 0-1.524-.343-2.145-1.029-.132-.133-.283-.362-.396-.533a.579.579 0 0 1-.094-.134l-.05-.05-1.098-.007c-.264 0-.753-.114-.904-.857a10.332 10.332 0 0 0-.225-.743c-.226-.628-.49-1.41-.49-2.419 0-2.285 1.958-4.762 5.101-4.762zm6.457 8.115h-1.544c.245 1.162.772 1.847 1.544 1.904v-1.904zm-6.476-7.2c-2.597 0-4.216 2-4.216 3.866 0 .857.226 1.524.433 2.115.094.285.188.571.245.838.018.095.018.133.037.152h1.092c.32 0 .565.133.772.42.037.037.075.094.113.152.094.152.226.342.32.438.583.666 1.11.742 1.506.742.978 0 1.487-.647 1.487-1.923v-.057l-.01-.324c-.013-.214-.034-.426-.047-.629-.075-.838-.132-1.638.377-2.21.357-.38.903-.59 1.75-.647-.17-1.2-1.13-2.933-3.859-2.933zm.189 6.285c.49 0 .884.4.884.896a.889.889 0 0 1-.884.895c-.49 0-.885-.4-.885-.895 0-.496.395-.896.885-.896zm3.708-2.495c-.584.038-.96.152-1.148.362-.245.286-.207.838-.15 1.543.018.171.018.38.037.59h1.28c-.02-.21-.02-.438-.02-.666V7.238z" fill="#fff"/>
    </g>
    <defs>
        <clipPath id="eq3ynm2lfa">
            <path fill="#fff" d="M0 0h16v16H0z"/>
        </clipPath>
    </defs>
</svg>
